HIERARCHY
ROOT Hips
{
	OFFSET 0.00000 0.00000 0.00000
	CHANNELS 6 Xposition Yposition Zposition Zrotation Yrotation Xrotation 
	JOINT LHipJoint
	{
		OFFSET 0 0 0
		CHANNELS 3 Zrotation Yrotation Xrotation
		JOINT LeftUpLeg
		{
			OFFSET 1.61328 -1.70571 0.84375
			CHANNELS 3 Zrotation Yrotation Xrotation
			JOINT LeftLeg
			{
				OFFSET 2.32400 -6.38513 0.00000
				CHANNELS 3 Zrotation Yrotation Xrotation
				JOINT LeftFoot
				{
					OFFSET 2.58843 -7.11166 0.00000
					CHANNELS 3 Zrotation Yrotation Xrotation
					JOINT LeftToeBase
					{
						OFFSET 0.17200 -0.47257 2.47970
						CHANNELS 3 Zrotation Yrotation Xrotation
						End Site
						{
							OFFSET 0.00000 -0.00000 1.26912
						}
					}
				}
			}
		}
	}
	JOINT RHipJoint
	{
		OFFSET 0 0 0
		CHANNELS 3 Zrotation Yrotation Xrotation
		JOINT RightUpLeg
		{
			OFFSET -1.49930 -1.70570 0.84375
			CHANNELS 3 Zrotation Yrotation Xrotation
			JOINT RightLeg
			{
				OFFSET -2.30458 -6.33178 0.00000
				CHANNELS 3 Zrotation Yrotation Xrotation
				JOINT RightFoot
				{
					OFFSET -2.62261 -7.20556 0.00000
					CHANNELS 3 Zrotation Yrotation Xrotation
					JOINT RightToeBase
					{
						OFFSET -0.18709 -0.51403 2.51340
						CHANNELS 3 Zrotation Yrotation Xrotation
						End Site
						{
							OFFSET -0.00000 -0.00000 1.28858
						}
					}
				}
			}
		}
	}
	JOINT LowerBack
	{
		OFFSET 0 0 0
		CHANNELS 3 Zrotation Yrotation Xrotation
		JOINT Spine
		{
			OFFSET -0.03798 2.19274 -0.19881
			CHANNELS 3 Zrotation Yrotation Xrotation
			JOINT Spine1
			{
				OFFSET -0.00024 2.19460 0.05248
				CHANNELS 3 Zrotation Yrotation Xrotation
				JOINT Neck
				{
					OFFSET 0 0 0
					CHANNELS 3 Zrotation Yrotation Xrotation
					JOINT Neck1
					{
						OFFSET -0.00746 1.82323 0.17286
						CHANNELS 3 Zrotation Yrotation Xrotation
						JOINT Head
						{
							OFFSET 0.11826 1.82121 -0.27841
							CHANNELS 3 Zrotation Yrotation Xrotation
							End Site
							{
								OFFSET 0.03496 1.85543 -0.11495
							}
						}
					}
				}
				JOINT LeftShoulder
				{
					OFFSET 0 0 0
					CHANNELS 3 Zrotation Yrotation Xrotation
					JOINT LeftArm
					{
						OFFSET 3.71926 0.78840 0.25473
						CHANNELS 3 Zrotation Yrotation Xrotation
						JOINT LeftForeArm
						{
							OFFSET 5.37587 -0.00000 0.00000
							CHANNELS 3 Zrotation Yrotation Xrotation
							JOINT LeftHand
							{
								OFFSET 3.35977 -0.00000 0.00000
								CHANNELS 3 Zrotation Yrotation Xrotation
								JOINT LeftFingerBase
								{
									OFFSET 0 0 0
									CHANNELS 3 Zrotation Yrotation Xrotation
									JOINT LeftHandIndex1
									{
										OFFSET 0.56186 -0.00000 0.00000
										CHANNELS 3 Zrotation Yrotation Xrotation
										End Site
										{
											OFFSET 0.45299 -0.00000 0.00000
										}
									}
								}
								JOINT LThumb
								{
									OFFSET 0 0 0
									CHANNELS 3 Zrotation Yrotation Xrotation
									End Site
									{
										OFFSET 0.45990 -0.00000 0.45990
									}
								}
							}
						}
					}
				}
				JOINT RightShoulder
				{
					OFFSET 0 0 0
					CHANNELS 3 Zrotation Yrotation Xrotation
					JOINT RightArm
					{
						OFFSET -3.65136 0.56074 0.01624
						CHANNELS 3 Zrotation Yrotation Xrotation
						JOINT RightForeArm
						{
							OFFSET -5.22819 -0.00000 0.00000
							CHANNELS 3 Zrotation Yrotation Xrotation
							JOINT RightHand
							{
								OFFSET -3.40764 -0.00000 0.00000
								CHANNELS 3 Zrotation Yrotation Xrotation
								JOINT RightFingerBase
								{
									OFFSET 0 0 0
									CHANNELS 3 Zrotation Yrotation Xrotation
									JOINT RightHandIndex1
									{
										OFFSET -0.58325 -0.00000 0.00000
										CHANNELS 3 Zrotation Yrotation Xrotation
										End Site
										{
											OFFSET -0.47024 -0.00000 0.00000
										}
									}
								}
								JOINT RThumb
								{
									OFFSET 0 0 0
									CHANNELS 3 Zrotation Yrotation Xrotation
									End Site
									{
										OFFSET -0.47742 -0.00000 0.47742
									}
								}
							}
						}
					}
				}
			}
		}
	}
}
MOTION
Frames: 15
Frame Time: .0083333
50.069 16.6588 -8.464 0 0 0 0 0 0 -21 0 0 0 0 0 0 0 0 0 0 0 0 0 0 21 0 0 0 0 0 0 0 0 0 0 0 0 0 0 0 0 0 0 0 0 0 0 -16 0 0 21 0 0 11 0 0 0 -8 0 0 0 0 0 0 0 0 0 0 0 0 0 0 0 0 0 0 0 0 8 0 0 0 0 0 0 0 0 0 0 0 0 0 0 0 0 0
50.0690 16.6588 -8.4640 -17.3597 -81.7132 16.9720 0.0000 0.0000 0.0000 -13.6429 -2.3135 -18.6601 4.6340 12.9594 39.2167 -0.0416 -8.5922 -5.1735 1.0973 -6.6564 -18.7013 0.0000 0.0000 0.0000 23.9275 1.3437 -13.9587 -3.3599 -11.2560 33.1483 -1.7389 -1.7371 -25.5999 -1.3460 -7.3451 20.7418 2.3881 0.4064 -2.4582 1.6976 -0.1121 9.5677 0.4582 -0.0535 11.6356 -2.0287 0.7171 -8.0645 -1.5391 0.1856 38.8945 -0.4015 -0.9797 14.8318 0.0000 0.0000 0.0000 -90.0392 -7.8805 23.9913 11.9223 -19.6880 -2.0760 -0.0000 0.0000 -5.1485 18.9384 16.1177 5.4413 -7.1250 0.0000 -0.0000 -8.3769 46.7940 -0.3734 0.0000 0.0000 0.0000 85.6390 13.8964 31.7889 -12.4443 20.4676 -2.2552 0.0000 -0.0000 -1.7973 -25.8713 -0.0735 0.0356 7.1250 -0.0000 -0.0000 0.5474 -30.0611 0.1996
50.0560 16.6584 -8.4495 -17.7282 -81.8871 17.3288 0.0000 0.0000 0.0000 -13.7630 -2.1670 -18.2963 4.5336 12.8385 38.7670 -0.0233 -8.5301 -5.5105 1.0808 -6.6078 -18.5584 0.0000 0.0000 0.0000 23.8885 1.4338 -13.8456 -3.3565 -11.2509 33.1308 -1.7376 -1.9997 -25.6976 -1.1950 -6.9364 19.5271 2.4312 0.4565 -2.5299 1.6503 -0.0280 9.3832 0.3923 -0.0026 11.4674 -1.8090 0.7610 -7.5630 -1.5984 0.1907 38.7612 -0.4612 -0.9561 14.6501 -0.0000 0.0000 0.0000 -89.9910 -7.3379 23.9604 11.8667 -19.6044 -2.0573 -0.0000 0.0000 -5.1152 18.8938 16.2335 5.4653 -7.1250 0.0000 -0.0000 -8.4483 46.9075 -0.4005 -0.0000 0.0000 0.0000 85.7636 13.4976 31.7243 -12.6397 20.7570 -2.3240 0.0000 -0.0000 -1.8334 -25.9093 -0.0766 0.0372 7.1250 -0.0000 -0.0000 0.5174 -30.0647 0.1886
50.0442 16.6584 -8.4333 -18.3528 -82.1240 17.9360 0.0000 0.0000 0.0000 -13.8805 -1.9753 -17.9492 4.4436 12.7284 38.3600 -0.0044 -8.4508 -5.8344 1.0476 -6.5089 -18.2682 0.0000 0.0000 0.0000 23.8529 1.5777 -13.7267 -3.3530 -11.2457 33.1129 -1.7300 -1.9511 -25.6227 -1.2124 -6.9849 19.6705 2.4970 0.5204 -2.5822 1.6046 0.0725 9.1983 0.3174 0.0577 11.2886 -1.6077 0.8113 -7.0048 -1.6411 0.2097 38.5453 -0.5066 -0.9247 14.4176 0.0000 0.0000 0.0000 -89.9667 -6.8587 23.8218 11.7614 -19.4458 -2.0221 -0.0000 0.0000 -4.9448 18.8401 16.1849 5.4329 -7.1250 0.0000 -0.0000 -8.4860 46.8502 -0.3902 0.0000 0.0000 0.0000 85.8707 13.0611 31.7756 -12.8629 21.0860 -2.4037 0.0000 -0.0000 -1.8915 -25.9985 -0.0147 0.0072 7.1250 -0.0000 -0.0000 0.4468 -29.9960 0.1636
50.0354 16.6597 -8.4187 -18.6082 -82.2649 18.2077 0.0000 0.0000 0.0000 -14.0284 -1.7414 -17.6987 4.3558 12.6194 37.9601 0.0151 -8.3035 -6.1177 1.0181 -6.4194 -18.0063 0.0000 0.0000 0.0000 23.8003 1.6988 -13.6572 -3.3496 -11.2406 33.0957 -1.7342 -1.8781 -25.6229 -1.2259 -7.0223 19.7814 2.5311 0.5821 -2.6374 1.5363 0.1762 9.0005 0.2362 0.1181 11.0974 -1.3892 0.8132 -6.5321 -1.6041 0.1301 38.3820 -0.5369 -0.9240 14.2314 0.0000 -0.0000 0.0000 -89.8568 -6.4012 23.9478 11.6896 -19.3376 -1.9983 -0.0000 0.0000 -4.9590 18.8059 16.2166 5.4327 -7.1250 0.0000 -0.0000 -8.5261 46.8782 -0.3980 0.0000 -0.0000 0.0000 86.0245 12.5544 31.7588 -13.1637 21.5266 -2.5130 0.0000 -0.0000 -2.1103 -26.0891 -0.0385 0.0188 7.1250 -0.0000 -0.0000 0.3754 -30.0225 0.1372
50.0254 16.6605 -8.4036 -18.9709 -82.4380 18.5727 0.0000 0.0000 0.0000 -14.1712 -1.5062 -17.4281 4.2715 12.5131 37.5722 0.0348 -8.1766 -6.4158 0.9845 -6.3155 -17.7027 0.0000 0.0000 0.0000 23.7481 1.8327 -13.5664 -3.3465 -11.2358 33.0794 -1.7334 -1.9047 -25.6286 -1.2039 -6.9612 19.6005 2.5879 0.6517 -2.6950 1.4619 0.2880 8.8104 0.1368 0.1843 10.9182 -1.1607 0.8232 -6.0330 -1.5900 0.0724 38.1939 -0.5746 -0.9156 14.0296 -0.0000 -0.0000 0.0000 -89.7532 -5.9446 24.0071 11.6110 -19.2187 -1.9724 -0.0000 0.0000 -4.9063 18.7730 16.2415 5.4305 -7.1250 0.0000 -0.0000 -8.5633 46.8994 -0.4043 -0.0000 -0.0000 0.0000 86.1880 12.0619 31.7284 -13.4434 21.9334 -2.6166 0.0000 -0.0000 -2.2789 -26.1885 -0.0276 0.0136 7.1250 -0.0000 -0.0000 0.2970 -30.0104 0.1086
50.0161 16.6617 -8.3884 -19.2859 -82.6098 18.8939 0.0000 0.0000 0.0000 -14.3234 -1.2416 -17.1842 4.1915 12.4110 37.2018 0.0545 -8.0397 -6.7030 0.9428 -6.1842 -17.3198 0.0000 0.0000 0.0000 23.6881 1.9828 -13.4781 -3.3436 -11.2315 33.0646 -1.7335 -1.9301 -25.6398 -1.1890 -6.9195 19.4771 2.6506 0.7296 -2.7580 1.3718 0.4110 8.6225 0.0188 0.2570 10.7466 -0.9176 0.8212 -5.5406 -1.5604 -0.0057 37.9942 -0.6107 -0.9119 13.8258 -0.0000 0.0000 0.0000 -89.6178 -5.5117 24.1146 11.5346 -19.1030 -1.9473 -0.0000 0.0000 -4.8624 18.7434 16.2540 5.4255 -7.1250 0.0000 -0.0000 -8.5942 46.9084 -0.4076 -0.0000 0.0000 0.0000 86.3789 11.5483 31.6748 -13.7410 22.3632 -2.7288 0.0000 -0.0000 -2.4720 -26.3044 -0.0184 0.0091 7.1250 -0.0000 -0.0000 0.2056 -30.0002 0.0752
50.0074 16.6631 -8.3733 -19.5175 -82.7803 19.1344 0.0000 0.0000 0.0000 -14.4887 -0.9501 -16.9602 4.1127 12.3089 36.8338 0.0738 -7.8943 -6.9736 0.8982 -6.0403 -16.9013 0.0000 0.0000 0.0000 23.6169 2.1476 -13.3904 -3.3412 -11.2279 33.0523 -1.7350 -1.9665 -25.6650 -1.1743 -6.8782 19.3549 2.7179 0.8167 -2.8251 1.2631 0.5471 8.4385 -0.1199 0.3370 10.5837 -0.6581 0.8068 -5.0652 -1.5120 -0.1059 37.7904 -0.6446 -0.9136 13.6257 0.0000 -0.0000 0.0000 -89.4445 -5.1006 24.2873 11.4670 -19.0006 -1.9252 -0.0000 0.0000 -4.8427 18.7136 16.2661 5.4201 -7.1250 0.0000 -0.0000 -8.6252 46.9168 -0.4110 0.0000 -0.0000 0.0000 86.6020 11.0173 31.5889 -14.0536 22.8112 -2.8488 0.0000 -0.0000 -2.6888 -26.4329 -0.0021 0.0010 7.1250 -0.0000 -0.0000 0.1042 -29.9820 0.0382
49.9990 16.6647 -8.3581 -19.6952 -82.9553 19.3220 0.0000 0.0000 0.0000 -14.6625 -0.6385 -16.7546 4.0361 12.2083 36.4729 0.0924 -7.7473 -7.2301 0.8531 -5.8907 -16.4675 0.0000 0.0000 0.0000 23.5370 2.3266 -13.3008 -3.3393 -11.2250 33.0424 -1.7368 -2.0171 -25.6986 -1.1586 -6.8336 19.2234 2.8058 0.9248 -2.8961 1.1279 0.7123 8.2485 -0.2948 0.4339 10.4197 -0.3666 0.7723 -4.5727 -1.4428 -0.2439 37.5774 -0.6799 -0.9254 13.4195 -0.0000 0.0000 0.0000 -89.2178 -4.6934 24.5407 11.4062 -18.9081 -1.9055 -0.0000 0.0000 -4.8337 18.6828 16.2770 5.4141 -7.1250 0.0000 -0.0000 -8.6568 46.9239 -0.4140 -0.0000 0.0000 0.0000 86.8752 10.4456 31.4284 -14.3751 23.2684 -2.9747 0.0000 -0.0000 -2.9004 -26.5695 0.0209 -0.0105 7.1250 -0.0000 -0.0000 -0.0035 -29.9564 -0.0013
49.9910 16.6664 -8.3427 -19.8127 -83.1329 19.4501 0.0000 0.0000 0.0000 -14.8438 -0.3200 -16.5610 3.9611 12.1085 36.1169 0.1101 -7.6028 -7.4716 0.8094 -5.7415 -16.0361 0.0000 0.0000 0.0000 23.4478 2.5139 -13.2116 -3.3381 -11.2232 33.0364 -1.7398 -2.0455 -25.7322 -1.1549 -6.8230 19.1920 2.8932 1.0346 -2.9640 0.9829 0.8790 8.0685 -0.4795 0.5314 10.2674 -0.0811 0.7327 -4.1260 -1.3600 -0.3858 37.3693 -0.7091 -0.9388 13.2275 -0.0000 0.0000 0.0000 -88.9742 -4.3276 24.8173 11.3501 -18.8229 -1.8873 -0.0000 0.0000 -4.8338 18.6527 16.2813 5.4062 -7.1250 0.0000 -0.0000 -8.6860 46.9243 -0.4155 -0.0000 0.0000 0.0000 87.1645 9.8855 31.2560 -14.6981 23.7239 -3.1035 0.0000 -0.0000 -3.1064 -26.7222 0.0517 -0.0260 7.1250 -0.0000 -0.0000 -0.1239 -29.9218 -0.0456
49.9834 16.6682 -8.3271 -19.8727 -83.3103 19.5221 0.0000 0.0000 0.0000 -15.0288 -0.0087 -16.3779 3.8880 12.0099 35.7669 0.1267 -7.4662 -7.6954 0.7697 -5.6023 -15.6347 0.0000 0.0000 0.0000 23.3502 2.7001 -13.1263 -3.3374 -11.2222 33.0331 -1.7427 -2.0770 -25.7661 -1.1490 -6.8062 19.1424 2.9650 1.1329 -3.0273 0.8419 1.0296 7.9042 -0.6529 0.6188 10.1309 0.1747 0.6980 -3.7430 -1.2737 -0.5093 37.1644 -0.7294 -0.9481 13.0525 -0.0000 0.0000 0.0000 -88.7414 -4.0103 25.0825 11.3041 -18.7529 -1.8725 -0.0000 0.0000 -4.8437 18.6190 16.2909 5.3988 -7.1250 0.0000 -0.0000 -8.7200 46.9294 -0.4183 -0.0000 0.0000 0.0000 87.4418 9.3591 31.1120 -15.0167 24.1694 -3.2328 0.0000 -0.0000 -3.3034 -26.8773 0.0867 -0.0439 7.1250 -0.0000 -0.0000 -0.2460 -29.8826 -0.0907
49.9760 16.6700 -8.3110 -19.9089 -83.4869 19.5697 0.0000 0.0000 0.0000 -15.2117 0.2861 -16.1987 3.8173 11.9132 35.4255 0.1420 -7.3426 -7.9017 0.7321 -5.4667 -15.2446 0.0000 0.0000 0.0000 23.2473 2.8780 -13.0457 -3.3374 -11.2222 33.0331 -1.7453 -2.1031 -25.7952 -1.1432 -6.7897 19.0937 2.9984 1.2007 -3.0874 0.7261 1.1370 7.7684 -0.7828 0.6804 10.0224 0.3656 0.6840 -3.4517 -1.1969 -0.5818 36.9660 -0.7365 -0.9449 12.9019 -0.0000 0.0000 0.0000 -88.5628 -3.7613 25.2688 11.2677 -18.6975 -1.8608 -0.0000 0.0000 -4.8519 18.5874 16.3125 5.3959 -7.1250 0.0000 -0.0000 -8.7551 46.9475 -0.4239 -0.0000 0.0000 0.0000 87.6669 8.9046 31.0671 -15.3220 24.5928 -3.3588 0.0000 -0.0000 -3.5063 -27.0271 0.1284 -0.0655 7.1250 -0.0000 -0.0000 -0.3637 -29.8356 -0.1345
49.9687 16.6717 -8.2945 -19.9486 -83.6586 19.6202 0.0000 0.0000 0.0000 -15.3866 0.5557 -16.0222 3.7497 11.8197 35.0971 0.1558 -7.2356 -8.0893 0.6973 -5.3378 -14.8747 0.0000 0.0000 0.0000 23.1427 3.0404 -12.9716 -3.3377 -11.2226 33.0343 -1.7471 -2.1201 -25.8152 -1.1375 -6.7731 19.0449 2.9750 1.2216 -3.1447 0.6519 1.1790 7.6689 -0.8439 0.7032 9.9480 0.4760 0.7049 -3.2711 -1.1506 -0.5746 36.7737 -0.7329 -0.9203 12.7790 0.0000 0.0000 0.0000 -88.4720 -3.5976 25.3153 11.2373 -18.6511 -1.8511 -0.0000 0.0000 -4.8403 18.5543 16.3466 5.3966 -7.1250 0.0000 -0.0000 -8.7951 46.9781 -0.4326 0.0000 0.0000 0.0000 87.8080 8.5452 31.1723 -15.6106 24.9898 -3.4798 0.0000 -0.0000 -3.7136 -27.1556 0.1754 -0.0900 7.1250 -0.0000 -0.0000 -0.4646 -29.7825 -0.1725
49.9616 16.6730 -8.2774 -20.0293 -83.8225 19.7087 0.0000 0.0000 0.0000 -15.5477 0.7991 -15.8475 3.6859 11.7303 34.7845 0.1679 -7.1491 -8.2575 0.6666 -5.2212 -14.5405 0.0000 0.0000 0.0000 23.0415 3.1850 -12.9023 -3.3380 -11.2231 33.0361 -1.7479 -2.1307 -25.8251 -1.1303 -6.7526 18.9844 2.8980 1.1969 -3.1993 0.6222 1.1572 7.6066 -0.8348 0.6885 9.9084 0.5098 0.7590 -3.2004 -1.1371 -0.4917 36.5894 -0.7208 -0.8754 12.6841 -0.0000 -0.0000 0.0000 -88.4663 -3.5143 25.2464 11.2193 -18.6236 -1.8454 -0.0000 0.0000 -4.8276 18.5189 16.3933 5.4005 -7.1250 0.0000 -0.0000 -8.8406 47.0214 -0.4443 -0.0000 -0.0000 0.0000 87.8603 8.2799 31.4292 -15.8826 25.3612 -3.5955 0.0000 -0.0000 -3.9358 -27.2458 0.2192 -0.1129 7.1250 -0.0000 -0.0000 -0.5353 -29.7329 -0.1993
49.9545 16.6740 -8.2596 -20.1931 -83.9799 19.8773 0.0000 0.0000 0.0000 -15.6908 1.0158 -15.6712 3.6262 11.6456 34.4896 0.1787 -7.0862 -8.4109 0.6374 -5.1080 -14.2169 0.0000 0.0000 0.0000 22.9467 3.3111 -12.8364 -3.3380 -11.2231 33.0359 -1.7474 -2.1336 -25.8233 -1.1217 -6.7277 18.9111 2.7962 1.1466 -3.2560 0.6210 1.0985 7.5693 -0.7857 0.6525 9.8952 0.4980 0.8311 -3.1974 -1.1461 -0.3657 36.4098 -0.7051 -0.8193 12.6061 -0.0000 0.0000 0.0000 -88.5121 -3.4938 25.1054 11.2079 -18.6062 -1.8417 -0.0000 0.0000 -4.8034 18.4798 16.4359 5.4018 -7.1250 0.0000 -0.0000 -8.8884 47.0599 -0.4553 -0.0000 0.0000 0.0000 87.8569 8.0775 31.7685 -16.1362 25.7050 -3.7048 0.0000 -0.0000 -4.1538 -27.2906 0.2542 -0.1311 7.1250 -0.0000 -0.0000 -0.5702 -29.6935 -0.2129
